<?xml version="1.0" encoding="UTF-8" standalone="no"?>
<!DOCTYPE svg PUBLIC "-//W3C//DTD SVG 1.1//EN"
 "http://www.w3.org/Graphics/SVG/1.1/DTD/svg11.dtd">
<!-- Generated by graphviz version 2.38.0 (20140413.2041)
 -->
<!-- Title: %3 Pages: 1 -->
<svg width="1584pt" height="1003pt"
 viewBox="0.00 0.00 1583.89 1003.38" xmlns="http://www.w3.org/2000/svg" xmlns:xlink="http://www.w3.org/1999/xlink">
<g id="graph0" class="graph" transform="scale(1 1) rotate(0) translate(4 999.38)">
<title>%3</title>
<polygon fill="white" stroke="none" points="-4,4 -4,-999.38 1579.89,-999.38 1579.89,4 -4,4"/>
<!-- phase1 -->
<g id="node1" class="node"><title>phase1</title>
<polygon fill="none" stroke="black" points="265.802,-972.496 185.48,-995.594 105.158,-972.496 105.233,-935.123 265.727,-935.123 265.802,-972.496"/>
<text text-anchor="middle" x="185.48" y="-965.967" font-family="Times,serif" font-size="14.00">Survey</text>
<text text-anchor="middle" x="185.48" y="-950.967" font-family="Times,serif" font-size="14.00">(a875bf6f)</text>
</g>
<!-- phase2 -->
<g id="node2" class="node"><title>phase2</title>
<polygon fill="none" stroke="black" points="471.023,-972.496 377.48,-995.594 283.937,-972.496 284.025,-935.123 470.936,-935.123 471.023,-972.496"/>
<text text-anchor="middle" x="377.48" y="-965.967" font-family="Times,serif" font-size="14.00">Preservation</text>
<text text-anchor="middle" x="377.48" y="-950.967" font-family="Times,serif" font-size="14.00">(bae7b612)</text>
</g>
<!-- phase3 -->
<g id="node3" class="node"><title>phase3</title>
<polygon fill="none" stroke="black" points="1218.04,-972.496 1131.48,-995.594 1044.92,-972.496 1045,-935.123 1217.96,-935.123 1218.04,-972.496"/>
<text text-anchor="middle" x="1131.48" y="-965.967" font-family="Times,serif" font-size="14.00">Examination</text>
<text text-anchor="middle" x="1131.48" y="-950.967" font-family="Times,serif" font-size="14.00">(c11c2d2b)</text>
</g>
<!-- phase4 -->
<g id="node4" class="node"><title>phase4</title>
<polygon fill="none" stroke="black" points="1396.8,-972.496 1316.48,-995.594 1236.16,-972.496 1236.23,-935.123 1396.73,-935.123 1396.8,-972.496"/>
<text text-anchor="middle" x="1316.48" y="-965.967" font-family="Times,serif" font-size="14.00">Analysis</text>
<text text-anchor="middle" x="1316.48" y="-950.967" font-family="Times,serif" font-size="14.00">(d9b479b0)</text>
</g>
<!-- phase5 -->
<g id="node5" class="node"><title>phase5</title>
<polygon fill="none" stroke="black" points="1575.8,-972.496 1495.48,-995.594 1415.16,-972.496 1415.23,-935.123 1575.73,-935.123 1575.8,-972.496"/>
<text text-anchor="middle" x="1495.48" y="-965.967" font-family="Times,serif" font-size="14.00">Report</text>
<text text-anchor="middle" x="1495.48" y="-950.967" font-family="Times,serif" font-size="14.00">(ed34b890)</text>
</g>
<!-- action1 -->
<g id="node6" class="node"><title>action1</title>
<polygon fill="none" stroke="black" points="185.98,-891.953 48.9802,-891.953 48.9802,-838.953 185.98,-838.953 185.98,-891.953"/>
<text text-anchor="middle" x="117.48" y="-876.753" font-family="Times,serif" font-size="14.00">Action 1:</text>
<text text-anchor="middle" x="117.48" y="-861.753" font-family="Times,serif" font-size="14.00">Seize cell phone</text>
<text text-anchor="middle" x="117.48" y="-846.753" font-family="Times,serif" font-size="14.00">(10aed80d)</text>
</g>
<!-- action1&#45;&gt;phase2 -->
<g id="edge1" class="edge"><title>action1&#45;&gt;phase2</title>
<path fill="none" stroke="black" d="M186.292,-891.52C219.967,-903.788 260.74,-918.64 295.967,-931.473"/>
<polygon fill="black" stroke="black" points="295.152,-934.901 305.746,-935.035 297.548,-928.324 295.152,-934.901"/>
</g>
<!-- record1 -->
<g id="node11" class="node"><title>record1</title>
<ellipse fill="none" stroke="black" cx="107.48" cy="-764.477" rx="107.46" ry="37.4533"/>
<text text-anchor="middle" x="107.48" y="-775.777" font-family="Times,serif" font-size="14.00">Android Smartphone</text>
<text text-anchor="middle" x="107.48" y="-760.777" font-family="Times,serif" font-size="14.00">ACME&#45;676553402357</text>
<text text-anchor="middle" x="107.48" y="-745.777" font-family="Times,serif" font-size="14.00">(3c8b42d9)</text>
</g>
<!-- action1&#45;&gt;record1 -->
<g id="edge6" class="edge"><title>action1&#45;&gt;record1</title>
<path fill="none" stroke="black" d="M114.879,-838.707C114.063,-830.633 113.136,-821.455 112.22,-812.392"/>
<polygon fill="black" stroke="black" points="115.686,-811.871 111.198,-802.274 108.721,-812.575 115.686,-811.871"/>
</g>
<!-- action2 -->
<g id="node7" class="node"><title>action2</title>
<polygon fill="none" stroke="black" points="379.98,-891.953 242.98,-891.953 242.98,-838.953 379.98,-838.953 379.98,-891.953"/>
<text text-anchor="middle" x="311.48" y="-876.753" font-family="Times,serif" font-size="14.00">Action 2:</text>
<text text-anchor="middle" x="311.48" y="-861.753" font-family="Times,serif" font-size="14.00">Receive evidence</text>
<text text-anchor="middle" x="311.48" y="-846.753" font-family="Times,serif" font-size="14.00">(26d10197)</text>
</g>
<!-- action2&#45;&gt;phase2 -->
<g id="edge2" class="edge"><title>action2&#45;&gt;phase2</title>
<path fill="none" stroke="black" d="M329.402,-892.172C336.788,-902.771 345.458,-915.212 353.386,-926.59"/>
<polygon fill="black" stroke="black" points="350.682,-928.832 359.271,-935.035 356.425,-924.829 350.682,-928.832"/>
</g>
<!-- record2 -->
<g id="node12" class="node"><title>record2</title>
<ellipse fill="none" stroke="black" cx="340.48" cy="-764.477" rx="107.46" ry="37.4533"/>
<text text-anchor="middle" x="340.48" y="-775.777" font-family="Times,serif" font-size="14.00">Android Smartphone</text>
<text text-anchor="middle" x="340.48" y="-760.777" font-family="Times,serif" font-size="14.00">DFL&#45;20140712&#45;001A</text>
<text text-anchor="middle" x="340.48" y="-745.777" font-family="Times,serif" font-size="14.00">(2c4d1a3f)</text>
</g>
<!-- action2&#45;&gt;record2 -->
<g id="edge8" class="edge"><title>action2&#45;&gt;record2</title>
<path fill="none" stroke="black" d="M319.024,-838.707C321.465,-830.375 324.251,-820.866 326.989,-811.521"/>
<polygon fill="black" stroke="black" points="330.355,-812.48 329.808,-801.899 323.638,-810.512 330.355,-812.48"/>
</g>
<!-- record3 -->
<g id="node13" class="node"><title>record3</title>
<ellipse fill="none" stroke="black" cx="567.48" cy="-764.477" rx="101.647" ry="37.4533"/>
<text text-anchor="middle" x="567.48" y="-775.777" font-family="Times,serif" font-size="14.00">SD Card</text>
<text text-anchor="middle" x="567.48" y="-760.777" font-family="Times,serif" font-size="14.00">DFL&#45;20140712&#45;001B</text>
<text text-anchor="middle" x="567.48" y="-745.777" font-family="Times,serif" font-size="14.00">(1bfeb106)</text>
</g>
<!-- action2&#45;&gt;record3 -->
<g id="edge9" class="edge"><title>action2&#45;&gt;record3</title>
<path fill="none" stroke="black" d="M377.74,-838.836C411.738,-825.691 453.379,-809.591 488.981,-795.827"/>
<polygon fill="black" stroke="black" points="490.305,-799.067 498.37,-792.196 487.781,-792.538 490.305,-799.067"/>
</g>
<!-- action3 -->
<g id="node8" class="node"><title>action3</title>
<polygon fill="none" stroke="black" points="556.98,-891.953 397.98,-891.953 397.98,-838.953 556.98,-838.953 556.98,-891.953"/>
<text text-anchor="middle" x="477.48" y="-876.753" font-family="Times,serif" font-size="14.00">Action 3:</text>
<text text-anchor="middle" x="477.48" y="-861.753" font-family="Times,serif" font-size="14.00">Take image of phone</text>
<text text-anchor="middle" x="477.48" y="-846.753" font-family="Times,serif" font-size="14.00">(377b516e)</text>
</g>
<!-- action3&#45;&gt;phase2 -->
<g id="edge3" class="edge"><title>action3&#45;&gt;phase2</title>
<path fill="none" stroke="black" d="M450.326,-892.172C438.696,-903.187 424.966,-916.191 412.579,-927.923"/>
<polygon fill="black" stroke="black" points="409.924,-925.617 405.07,-935.035 414.738,-930.7 409.924,-925.617"/>
</g>
<!-- record4 -->
<g id="node14" class="node"><title>record4</title>
<ellipse fill="none" stroke="black" cx="789.48" cy="-764.477" rx="101.647" ry="37.4533"/>
<text text-anchor="middle" x="789.48" y="-775.777" font-family="Times,serif" font-size="14.00">Smartphone Image</text>
<text text-anchor="middle" x="789.48" y="-760.777" font-family="Times,serif" font-size="14.00">DFL&#45;20140712&#45;001C</text>
<text text-anchor="middle" x="789.48" y="-745.777" font-family="Times,serif" font-size="14.00">(fa163580)</text>
</g>
<!-- action3&#45;&gt;record4 -->
<g id="edge11" class="edge"><title>action3&#45;&gt;record4</title>
<path fill="none" stroke="black" d="M557.292,-839.958C594.213,-828.544 638.625,-814.697 678.48,-801.953 687.135,-799.186 696.16,-796.27 705.161,-793.342"/>
<polygon fill="black" stroke="black" points="706.476,-796.595 714.899,-790.167 704.306,-789.939 706.476,-796.595"/>
</g>
<!-- action4 -->
<g id="node9" class="node"><title>action4</title>
<polygon fill="none" stroke="black" points="749.48,-891.953 575.48,-891.953 575.48,-838.953 749.48,-838.953 749.48,-891.953"/>
<text text-anchor="middle" x="662.48" y="-876.753" font-family="Times,serif" font-size="14.00">Action 4:</text>
<text text-anchor="middle" x="662.48" y="-861.753" font-family="Times,serif" font-size="14.00">Take image of SD card</text>
<text text-anchor="middle" x="662.48" y="-846.753" font-family="Times,serif" font-size="14.00">(442a7626)</text>
</g>
<!-- action4&#45;&gt;phase2 -->
<g id="edge4" class="edge"><title>action4&#45;&gt;phase2</title>
<path fill="none" stroke="black" d="M585.582,-892.009C548.601,-904.298 504.079,-919.094 465.723,-931.841"/>
<polygon fill="black" stroke="black" points="464.498,-928.56 456.112,-935.035 466.706,-935.203 464.498,-928.56"/>
</g>
<!-- record5 -->
<g id="node15" class="node"><title>record5</title>
<ellipse fill="none" stroke="black" cx="1039.48" cy="-764.477" rx="101.647" ry="37.4533"/>
<text text-anchor="middle" x="1039.48" y="-775.777" font-family="Times,serif" font-size="14.00">SD Card Image</text>
<text text-anchor="middle" x="1039.48" y="-760.777" font-family="Times,serif" font-size="14.00">DFL&#45;20140712&#45;001D</text>
<text text-anchor="middle" x="1039.48" y="-745.777" font-family="Times,serif" font-size="14.00">(4f50fd68)</text>
</g>
<!-- action4&#45;&gt;record5 -->
<g id="edge13" class="edge"><title>action4&#45;&gt;record5</title>
<path fill="none" stroke="black" d="M749.919,-841.497C809.261,-825.918 887.575,-805.358 947.794,-789.548"/>
<polygon fill="black" stroke="black" points="948.893,-792.878 957.677,-786.953 947.116,-786.107 948.893,-792.878"/>
</g>
<!-- action5 -->
<g id="node10" class="node"><title>action5</title>
<polygon fill="none" stroke="black" points="1233.48,-891.953 1029.48,-891.953 1029.48,-838.953 1233.48,-838.953 1233.48,-891.953"/>
<text text-anchor="middle" x="1131.48" y="-876.753" font-family="Times,serif" font-size="14.00">Action 5:</text>
<text text-anchor="middle" x="1131.48" y="-861.753" font-family="Times,serif" font-size="14.00">Find email and photograph</text>
<text text-anchor="middle" x="1131.48" y="-846.753" font-family="Times,serif" font-size="14.00">(5ee361f6)</text>
</g>
<!-- action5&#45;&gt;phase3 -->
<g id="edge5" class="edge"><title>action5&#45;&gt;phase3</title>
<path fill="none" stroke="black" d="M1131.48,-892.172C1131.48,-902.252 1131.48,-913.997 1131.48,-924.91"/>
<polygon fill="black" stroke="black" points="1127.98,-925.035 1131.48,-935.035 1134.98,-925.035 1127.98,-925.035"/>
</g>
<!-- record6 -->
<g id="node16" class="node"><title>record6</title>
<ellipse fill="none" stroke="black" cx="1247.48" cy="-764.477" rx="65.1077" ry="26.7407"/>
<text text-anchor="middle" x="1247.48" y="-768.277" font-family="Times,serif" font-size="14.00">Email</text>
<text text-anchor="middle" x="1247.48" y="-753.277" font-family="Times,serif" font-size="14.00">(7ba0a76f)</text>
</g>
<!-- action5&#45;&gt;record6 -->
<g id="edge16" class="edge"><title>action5&#45;&gt;record6</title>
<path fill="none" stroke="black" d="M1161.66,-838.707C1177.12,-825.515 1196.03,-809.373 1212.17,-795.605"/>
<polygon fill="black" stroke="black" points="1214.5,-798.214 1219.84,-789.06 1209.96,-792.889 1214.5,-798.214"/>
</g>
<!-- record7 -->
<g id="node17" class="node"><title>record7</title>
<ellipse fill="none" stroke="black" cx="1437.48" cy="-764.477" rx="65.1077" ry="26.7407"/>
<text text-anchor="middle" x="1437.48" y="-768.277" font-family="Times,serif" font-size="14.00">Photograph</text>
<text text-anchor="middle" x="1437.48" y="-753.277" font-family="Times,serif" font-size="14.00">(a98a7357)</text>
</g>
<!-- action5&#45;&gt;record7 -->
<g id="edge17" class="edge"><title>action5&#45;&gt;record7</title>
<path fill="none" stroke="black" d="M1210.68,-838.836C1262.87,-821.956 1330.12,-800.204 1377.8,-784.781"/>
<polygon fill="black" stroke="black" points="1378.93,-788.095 1387.36,-781.687 1376.77,-781.435 1378.93,-788.095"/>
</g>
<!-- record1&#45;&gt;action2 -->
<g id="edge7" class="edge"><title>record1&#45;&gt;action2</title>
<path fill="none" stroke="black" d="M169.106,-795.376C194.554,-807.723 223.999,-822.009 249.484,-834.374"/>
<polygon fill="black" stroke="black" points="248.155,-837.619 258.68,-838.836 251.211,-831.322 248.155,-837.619"/>
</g>
<!-- observable1 -->
<g id="node18" class="node"><title>observable1</title>
<polygon fill="none" stroke="black" points="393.153,-690 142.331,-690 77.8072,-614 328.63,-614 393.153,-690"/>
<text text-anchor="middle" x="235.48" y="-655.8" font-family="Times,serif" font-size="14.00">Android Smartphone</text>
<text text-anchor="middle" x="235.48" y="-640.8" font-family="Times,serif" font-size="14.00">(79da52e6)</text>
</g>
<!-- record1&#45;&gt;observable1 -->
<g id="edge18" class="edge"><title>record1&#45;&gt;observable1</title>
<path fill="none" stroke="black" d="M146.929,-729.429C158.852,-719.138 172.114,-707.691 184.669,-696.855"/>
<polygon fill="black" stroke="black" points="187.093,-699.386 192.377,-690.203 182.52,-694.087 187.093,-699.386"/>
</g>
<!-- record2&#45;&gt;action3 -->
<g id="edge10" class="edge"><title>record2&#45;&gt;action3</title>
<path fill="none" stroke="black" d="M386.279,-798.565C401.556,-809.601 418.531,-821.865 433.654,-832.791"/>
<polygon fill="black" stroke="black" points="431.687,-835.688 441.843,-838.707 435.786,-830.013 431.687,-835.688"/>
</g>
<!-- record2&#45;&gt;observable1 -->
<g id="edge19" class="edge"><title>record2&#45;&gt;observable1</title>
<path fill="none" stroke="black" d="M307.258,-728.521C297.878,-718.653 287.546,-707.781 277.713,-697.436"/>
<polygon fill="black" stroke="black" points="280.089,-694.855 270.663,-690.018 275.015,-699.677 280.089,-694.855"/>
</g>
<!-- record3&#45;&gt;action4 -->
<g id="edge12" class="edge"><title>record3&#45;&gt;action4</title>
<path fill="none" stroke="black" d="M600.653,-800.039C610.375,-810.167 620.979,-821.215 630.617,-831.256"/>
<polygon fill="black" stroke="black" points="628.318,-833.916 637.768,-838.707 633.369,-829.069 628.318,-833.916"/>
</g>
<!-- observable2 -->
<g id="node19" class="node"><title>observable2</title>
<polygon fill="none" stroke="black" points="601.743,-690 450.201,-690 411.218,-614 562.759,-614 601.743,-690"/>
<text text-anchor="middle" x="506.48" y="-655.8" font-family="Times,serif" font-size="14.00">SD Card</text>
<text text-anchor="middle" x="506.48" y="-640.8" font-family="Times,serif" font-size="14.00">(f7fee955)</text>
</g>
<!-- record3&#45;&gt;observable2 -->
<g id="edge20" class="edge"><title>record3&#45;&gt;observable2</title>
<path fill="none" stroke="black" d="M547.675,-727.608C542.666,-718.536 537.217,-708.667 531.97,-699.165"/>
<polygon fill="black" stroke="black" points="534.921,-697.269 527.024,-690.206 528.793,-700.652 534.921,-697.269"/>
</g>
<!-- record4&#45;&gt;action5 -->
<g id="edge14" class="edge"><title>record4&#45;&gt;action5</title>
<path fill="none" stroke="black" d="M868.295,-788.286C917.396,-802.496 980.962,-820.893 1033.32,-836.046"/>
<polygon fill="black" stroke="black" points="1032.38,-839.418 1042.96,-838.836 1034.33,-832.694 1032.38,-839.418"/>
</g>
<!-- observable3 -->
<g id="node20" class="node"><title>observable3</title>
<polygon fill="none" stroke="black" points="903.551,-690 677.548,-690 619.41,-614 845.412,-614 903.551,-690"/>
<text text-anchor="middle" x="761.48" y="-655.8" font-family="Times,serif" font-size="14.00">Smartphone Image</text>
<text text-anchor="middle" x="761.48" y="-640.8" font-family="Times,serif" font-size="14.00">(6da04cf4)</text>
</g>
<!-- record4&#45;&gt;observable3 -->
<g id="edge21" class="edge"><title>record4&#45;&gt;observable3</title>
<path fill="none" stroke="black" d="M780.234,-726.996C778.059,-718.411 775.709,-709.14 773.433,-700.161"/>
<polygon fill="black" stroke="black" points="776.758,-699.031 770.908,-690.198 769.972,-700.751 776.758,-699.031"/>
</g>
<!-- record5&#45;&gt;action5 -->
<g id="edge15" class="edge"><title>record5&#45;&gt;action5</title>
<path fill="none" stroke="black" d="M1071.95,-800.409C1081.29,-810.461 1091.45,-821.392 1100.69,-831.331"/>
<polygon fill="black" stroke="black" points="1098.18,-833.765 1107.55,-838.707 1103.3,-828.999 1098.18,-833.765"/>
</g>
<!-- observable4 -->
<g id="node21" class="node"><title>observable4</title>
<polygon fill="none" stroke="black" points="1157.86,-690 969.544,-690 921.1,-614 1109.42,-614 1157.86,-690"/>
<text text-anchor="middle" x="1039.48" y="-655.8" font-family="Times,serif" font-size="14.00">SD Card Image</text>
<text text-anchor="middle" x="1039.48" y="-640.8" font-family="Times,serif" font-size="14.00">(d133d2d5)</text>
</g>
<!-- record5&#45;&gt;observable4 -->
<g id="edge22" class="edge"><title>record5&#45;&gt;observable4</title>
<path fill="none" stroke="black" d="M1039.48,-726.996C1039.48,-718.504 1039.48,-709.34 1039.48,-700.45"/>
<polygon fill="black" stroke="black" points="1042.98,-700.198 1039.48,-690.198 1035.98,-700.198 1042.98,-700.198"/>
</g>
<!-- observable6 -->
<g id="node23" class="node"><title>observable6</title>
<polygon fill="none" stroke="black" points="1366.74,-690 1215.2,-690 1176.22,-614 1327.76,-614 1366.74,-690"/>
<text text-anchor="middle" x="1271.48" y="-655.8" font-family="Times,serif" font-size="14.00">Email</text>
<text text-anchor="middle" x="1271.48" y="-640.8" font-family="Times,serif" font-size="14.00">(f00e5226)</text>
</g>
<!-- record6&#45;&gt;observable6 -->
<g id="edge23" class="edge"><title>record6&#45;&gt;observable6</title>
<path fill="none" stroke="black" d="M1253.11,-737.575C1255.53,-726.403 1258.45,-712.976 1261.24,-700.144"/>
<polygon fill="black" stroke="black" points="1264.73,-700.551 1263.43,-690.036 1257.89,-699.065 1264.73,-700.551"/>
</g>
<!-- observable5 -->
<g id="node22" class="node"><title>observable5</title>
<polygon fill="none" stroke="black" points="1575.74,-690 1424.2,-690 1385.22,-614 1536.76,-614 1575.74,-690"/>
<text text-anchor="middle" x="1480.48" y="-655.8" font-family="Times,serif" font-size="14.00">Photograph</text>
<text text-anchor="middle" x="1480.48" y="-640.8" font-family="Times,serif" font-size="14.00">(8389114f)</text>
</g>
<!-- record7&#45;&gt;observable5 -->
<g id="edge24" class="edge"><title>record7&#45;&gt;observable5</title>
<path fill="none" stroke="black" d="M1447.45,-737.853C1451.89,-726.466 1457.25,-712.696 1462.35,-699.591"/>
<polygon fill="black" stroke="black" points="1465.63,-700.798 1466,-690.21 1459.11,-698.259 1465.63,-700.798"/>
</g>
<!-- device1 -->
<g id="node24" class="node"><title>device1</title>
<polygon fill="none" stroke="black" points="427.48,-263 320.48,-210 427.48,-157 534.48,-210 427.48,-263"/>
<text text-anchor="middle" x="427.48" y="-221.3" font-family="Times,serif" font-size="14.00">DeviceObject</text>
<text text-anchor="middle" x="427.48" y="-206.3" font-family="Times,serif" font-size="14.00">(HTC G2)</text>
<text text-anchor="middle" x="427.48" y="-191.3" font-family="Times,serif" font-size="14.00">(f1680e63)</text>
</g>
<!-- observable1&#45;&gt;device1 -->
<g id="edge25" class="edge"><title>observable1&#45;&gt;device1</title>
<path fill="none" stroke="black" d="M251.685,-613.865C285.869,-535.525 365.442,-353.172 404.718,-263.163"/>
<polygon fill="black" stroke="black" points="407.941,-264.528 408.733,-253.962 401.526,-261.728 407.941,-264.528"/>
</g>
<!-- device2 -->
<g id="node25" class="node"><title>device2</title>
<polygon fill="none" stroke="black" points="562.48,-106 448.48,-53 562.48,-7.10543e-15 676.48,-53 562.48,-106"/>
<text text-anchor="middle" x="562.48" y="-64.3" font-family="Times,serif" font-size="14.00">Deviceobject</text>
<text text-anchor="middle" x="562.48" y="-49.3" font-family="Times,serif" font-size="14.00">(Sandisk HCl)</text>
<text text-anchor="middle" x="562.48" y="-34.3" font-family="Times,serif" font-size="14.00">(ccf73c90)</text>
</g>
<!-- observable2&#45;&gt;device2 -->
<g id="edge26" class="edge"><title>observable2&#45;&gt;device2</title>
<path fill="none" stroke="black" d="M532.84,-613.739C547.365,-589.603 562.48,-556.838 562.48,-525 562.48,-525 562.48,-525 562.48,-209 562.48,-178.443 562.48,-144.497 562.48,-116.181"/>
<polygon fill="black" stroke="black" points="565.98,-116.02 562.48,-106.02 558.98,-116.02 565.98,-116.02"/>
</g>
<!-- file1 -->
<g id="node26" class="node"><title>file1</title>
<polygon fill="none" stroke="black" points="761.48,-420 647.48,-367 761.48,-314 875.48,-367 761.48,-420"/>
<text text-anchor="middle" x="761.48" y="-378.3" font-family="Times,serif" font-size="14.00">FileObject</text>
<text text-anchor="middle" x="761.48" y="-363.3" font-family="Times,serif" font-size="14.00">(Phone Image)</text>
<text text-anchor="middle" x="761.48" y="-348.3" font-family="Times,serif" font-size="14.00">(11ff2c06)</text>
</g>
<!-- observable3&#45;&gt;file1 -->
<g id="edge27" class="edge"><title>observable3&#45;&gt;file1</title>
<path fill="none" stroke="black" d="M761.48,-613.712C761.48,-567.013 761.48,-486.334 761.48,-430.218"/>
<polygon fill="black" stroke="black" points="764.98,-430.039 761.48,-420.039 757.98,-430.04 764.98,-430.039"/>
</g>
<!-- file2 -->
<g id="node27" class="node"><title>file2</title>
<polygon fill="none" stroke="black" points="972.48,-577 843.48,-524 972.48,-471 1101.48,-524 972.48,-577"/>
<text text-anchor="middle" x="972.48" y="-535.3" font-family="Times,serif" font-size="14.00">FileObject</text>
<text text-anchor="middle" x="972.48" y="-520.3" font-family="Times,serif" font-size="14.00">(SD Card Image)</text>
<text text-anchor="middle" x="972.48" y="-505.3" font-family="Times,serif" font-size="14.00">(135b7b3e)</text>
</g>
<!-- observable4&#45;&gt;file2 -->
<g id="edge28" class="edge"><title>observable4&#45;&gt;file2</title>
<path fill="none" stroke="black" d="M1019.74,-613.877C1013.59,-602.311 1006.69,-589.337 1000.11,-576.951"/>
<polygon fill="black" stroke="black" points="1003.16,-575.251 995.38,-568.065 996.984,-578.537 1003.16,-575.251"/>
</g>
<!-- image -->
<g id="node28" class="node"><title>image</title>
<polygon fill="none" stroke="black" points="1271.48,-405 1142.48,-367 1271.48,-329 1400.48,-367 1271.48,-405"/>
<text text-anchor="middle" x="1271.48" y="-370.8" font-family="Times,serif" font-size="14.00">ImageFileObject</text>
<text text-anchor="middle" x="1271.48" y="-355.8" font-family="Times,serif" font-size="14.00">(f4e8b9e3)</text>
</g>
<!-- observable5&#45;&gt;image -->
<g id="edge29" class="edge"><title>observable5&#45;&gt;image</title>
<path fill="none" stroke="black" d="M1478.35,-613.877C1474.46,-574.956 1463.48,-513.642 1432.48,-471 1407.69,-436.898 1367.85,-411.275 1334.01,-394.115"/>
<polygon fill="black" stroke="black" points="1335.15,-390.779 1324.64,-389.499 1332.06,-397.058 1335.15,-390.779"/>
</g>
<!-- email -->
<g id="node29" class="node"><title>email</title>
<polygon fill="none" stroke="black" points="1271.48,-562 1119.48,-524 1271.48,-486 1423.48,-524 1271.48,-562"/>
<text text-anchor="middle" x="1271.48" y="-527.8" font-family="Times,serif" font-size="14.00">EmailMessageObject</text>
<text text-anchor="middle" x="1271.48" y="-512.8" font-family="Times,serif" font-size="14.00">(856ab3af)</text>
</g>
<!-- observable6&#45;&gt;email -->
<g id="edge30" class="edge"><title>observable6&#45;&gt;email</title>
<path fill="none" stroke="black" d="M1271.48,-613.877C1271.48,-600.92 1271.48,-586.194 1271.48,-572.509"/>
<polygon fill="black" stroke="black" points="1274.98,-572.293 1271.48,-562.293 1267.98,-572.293 1274.98,-572.293"/>
</g>
<!-- device1&#45;&gt;device2 -->
<g id="edge31" class="edge"><title>device1&#45;&gt;device2</title>
<path fill="none" stroke="black" d="M453.053,-169.232C463.149,-154.519 475.251,-138.021 487.48,-124 496.157,-114.053 506.095,-103.998 515.837,-94.7326"/>
<polygon fill="black" stroke="black" points="518.317,-97.2052 523.225,-87.8156 513.533,-92.0953 518.317,-97.2052"/>
<text text-anchor="middle" x="517.98" y="-127.8" font-family="Times,serif" font-size="14.00">Contains</text>
</g>
<!-- file1&#45;&gt;device1 -->
<g id="edge32" class="edge"><title>file1&#45;&gt;device1</title>
<path fill="none" stroke="black" d="M705.199,-339.882C645.96,-312.39 552.89,-269.199 491.043,-240.498"/>
<polygon fill="black" stroke="black" points="492.318,-237.231 481.774,-236.196 489.371,-243.58 492.318,-237.231"/>
<text text-anchor="middle" x="657.48" y="-284.8" font-family="Times,serif" font-size="14.00">Extracted From</text>
</g>
<!-- file2&#45;&gt;device2 -->
<g id="edge33" class="edge"><title>file2&#45;&gt;device2</title>
<path fill="none" stroke="black" d="M959.979,-475.993C946.478,-431.239 921.76,-363.549 884.48,-314 810.637,-215.855 691.841,-132.854 621.048,-88.5323"/>
<polygon fill="black" stroke="black" points="622.577,-85.3619 612.235,-83.0595 618.884,-91.3085 622.577,-85.3619"/>
<text text-anchor="middle" x="921.48" y="-284.8" font-family="Times,serif" font-size="14.00">Extracted From</text>
</g>
<!-- file2&#45;&gt;image -->
<g id="edge34" class="edge"><title>file2&#45;&gt;image</title>
<path fill="none" stroke="black" d="M991.521,-478.424C999.748,-463.712 1010.7,-448.455 1024.48,-438 1066,-406.502 1121.13,-389.174 1168.76,-379.643"/>
<polygon fill="black" stroke="black" points="1169.64,-383.038 1178.81,-377.725 1168.33,-376.163 1169.64,-383.038"/>
<text text-anchor="middle" x="1054.98" y="-441.8" font-family="Times,serif" font-size="14.00">Contains</text>
</g>
<!-- email&#45;&gt;file1 -->
<g id="edge35" class="edge"><title>email&#45;&gt;file1</title>
<path fill="none" stroke="black" d="M1223.69,-497.682C1186.79,-478.997 1134,-454.117 1085.48,-438 1009.77,-412.85 921.041,-394.411 855.598,-382.79"/>
<polygon fill="black" stroke="black" points="856.163,-379.335 845.709,-381.054 854.953,-386.23 856.163,-379.335"/>
<text text-anchor="middle" x="1174.48" y="-441.8" font-family="Times,serif" font-size="14.00">Extracted From</text>
</g>
<!-- email&#45;&gt;image -->
<g id="edge36" class="edge"><title>email&#45;&gt;image</title>
<path fill="none" stroke="black" d="M1271.48,-485.874C1271.48,-464.671 1271.48,-437.874 1271.48,-415.19"/>
<polygon fill="black" stroke="black" points="1274.98,-415.092 1271.48,-405.092 1267.98,-415.092 1274.98,-415.092"/>
<text text-anchor="middle" x="1324.48" y="-441.8" font-family="Times,serif" font-size="14.00">Has Attachment</text>
</g>
</g>
</svg>
